<?xml version="1.0" standalone="no"?>
<!DOCTYPE svg PUBLIC "-//W3C//DTD SVG 20010904//EN"
 "http://www.w3.org/TR/2001/REC-SVG-20010904/DTD/svg10.dtd">
<svg version="1.0" xmlns="http://www.w3.org/2000/svg"
 width="3000.000000pt" height="3000.000000pt" viewBox="0 0 3000.000000 3000.000000"
 preserveAspectRatio="xMidYMid meet">

<g transform="translate(0.000000,3000.000000) scale(0.100000,-0.100000)"
fill="#000000" stroke="none">
<path d="M15310 27806 c-139 -79 -550 -308 -665 -371 -38 -21 -83 -48 -100
-60 -30 -21 -96 -58 -267 -149 -288 -152 -257 -135 -533 -291 -624 -354 -1168
-712 -1605 -1054 -482 -378 -918 -808 -1214 -1199 -439 -580 -718 -1232 -811
-1893 -8 -56 -20 -108 -27 -114 -13 -12 -87 -52 -413 -220 -230 -119 -419
-217 -545 -283 -58 -30 -150 -78 -205 -105 -247 -124 -864 -485 -1205 -705
-1664 -1072 -2562 -2195 -2805 -3508 -49 -266 -67 -472 -66 -789 0 -459 42
-802 153 -1235 16 -63 36 -137 45 -165 110 -351 204 -583 357 -880 568 -1101
1548 -2086 2979 -2994 187 -118 270 -168 467 -281 41 -24 162 -100 267 -169
l193 -126 0 -2697 c0 -1574 -4 -2698 -9 -2698 -5 0 -94 49 -197 108 -331 190
-697 377 -1009 514 -143 63 -178 79 -210 92 -367 160 -881 334 -1334 452
l-175 46 -240 -244 c-1104 -1118 -2064 -2093 -2205 -2240 l-64 -66 49 -64 c59
-77 61 -79 93 -65 17 7 115 11 286 11 272 0 384 -11 650 -65 852 -172 1824
-603 2786 -1234 378 -248 718 -500 1130 -837 l96 -78 194 93 c107 52 235 113
284 137 929 444 1504 741 2127 1096 1904 1086 3071 2129 3633 3244 55 109 125
258 125 266 0 3 8 24 19 47 10 23 30 74 44 112 83 227 135 426 189 718 l13 68
360 183 c1168 592 2202 1251 2955 1882 288 242 589 530 783 752 45 50 85 92
89 92 4 0 8 -1129 8 -2510 0 -2001 -3 -2510 -12 -2510 -7 0 -51 23 -98 51
-220 133 -753 412 -1020 533 -564 256 -1100 447 -1650 587 l-155 40 -370 -373
c-558 -561 -2108 -2138 -2123 -2160 -12 -16 -8 -26 35 -84 l47 -65 71 8 c127
14 490 8 625 -11 180 -25 473 -83 585 -117 17 -4 80 -23 140 -40 425 -121 853
-294 1340 -540 164 -83 242 -125 495 -267 445 -251 1155 -750 1624 -1142 53
-44 101 -80 106 -80 5 0 166 77 357 171 554 273 1241 610 1524 748 202 98 869
471 1184 663 1406 855 2339 1663 2912 2523 538 807 752 1642 678 2645 -66 897
-292 1576 -750 2260 -481 716 -1219 1382 -2417 2177 -444 295 -1294 827 -1564
977 -50 28 -179 109 -288 180 l-196 130 0 2178 c0 1198 3 2178 6 2178 3 0 25
-12 49 -26 115 -67 557 -292 750 -381 558 -258 1109 -472 1660 -643 143 -45
303 -90 318 -90 8 0 60 48 118 108 108 112 1012 1043 1279 1317 201 206 866
890 989 1018 l95 97 -34 70 c-33 67 -35 70 -64 65 -226 -36 -271 -39 -541 -40
-292 0 -346 5 -585 56 -825 174 -2008 774 -3830 1944 -97 62 -227 139 -290
170 l-115 57 -525 -261 c-751 -373 -1324 -689 -1835 -1014 -977 -621 -1675
-1227 -2158 -1874 -83 -110 -93 -120 -112 -111 -11 6 -109 70 -217 142 l-198
130 0 2178 c0 1198 1 2178 3 2178 2 0 48 -25 102 -55 110 -61 612 -314 715
-360 36 -16 101 -45 145 -66 222 -102 669 -284 925 -376 358 -129 865 -288
896 -281 7 2 117 111 245 243 128 132 318 328 423 435 105 107 337 346 516
530 178 184 408 421 510 525 337 343 775 796 778 804 1 5 -12 37 -31 72 -38
74 -21 71 -217 41 -167 -25 -634 -24 -775 1 -382 68 -684 159 -1069 324 -631
268 -1245 600 -2301 1243 -237 144 -304 186 -490 305 -44 29 -132 85 -195 125
-63 40 -181 115 -261 166 -80 52 -148 94 -150 93 -2 0 -38 -19 -79 -43z
m-2027 -2139 c311 -269 580 -469 1079 -807 l170 -115 -1 -2119 c-1 -1166 -2
-2121 -4 -2123 -2 -2 -78 56 -168 129 -1146 920 -1704 1716 -1864 2657 -46
273 -67 673 -46 891 59 609 296 1199 620 1542 35 38 65 68 68 68 2 0 68 -55
146 -123z m-5257 -5063 c294 -259 669 -541 1097 -824 l187 -124 0 -2124 c0
-1301 -4 -2122 -9 -2120 -5 2 -72 52 -148 113 -495 393 -950 841 -1238 1220
-409 537 -634 1120 -684 1773 -34 433 -17 679 70 1033 101 411 292 801 519
1057 44 50 85 92 89 92 4 0 57 -43 117 -96z m10395 63 c332 -294 697 -571
1129 -859 107 -72 203 -137 213 -146 16 -14 17 -98 17 -1493 0 -813 -3 -1480
-7 -1482 -5 -3 -51 45 -103 105 -112 130 -437 451 -600 594 -329 289 -737 599
-1221 929 -72 49 -135 99 -140 110 -10 25 -29 317 -29 453 0 633 273 1383 644
1770 28 28 53 52 56 52 3 -1 21 -15 41 -33z m-7875 -1757 c82 -45 257 -134
389 -199 215 -107 283 -139 500 -236 33 -14 76 -34 95 -42 19 -9 82 -36 139
-60 104 -42 106 -44 240 -176 433 -424 971 -846 1591 -1247 167 -108 495 -309
519 -318 47 -17 511 -318 511 -331 1 -3593 -1 -4681 -7 -4680 -5 1 -48 47 -97
103 -117 132 -380 393 -531 527 -329 290 -623 519 -1119 869 -82 58 -570 383
-686 457 -238 151 -327 208 -500 315 -307 190 -640 392 -730 442 -47 27 -172
105 -277 175 l-193 126 0 2178 c0 1197 2 2177 4 2177 2 0 70 -36 152 -80z
m5094 -3601 c0 -5 17 -53 39 -107 218 -547 586 -1129 1045 -1652 223 -255 596
-617 859 -835 111 -93 107 -83 134 -300 26 -216 26 -891 0 -1110 -50 -413
-118 -711 -232 -1020 -46 -126 -178 -396 -241 -495 -119 -186 -274 -362 -419
-475 -131 -102 -91 -117 -347 138 -265 264 -621 575 -815 712 l-43 30 0 2568
c0 1710 3 2566 10 2562 6 -3 10 -10 10 -16z m5345 -4925 c368 -287 838 -730
1065 -1003 699 -843 975 -1682 929 -2826 -39 -970 -313 -1752 -775 -2208 -83
-81 -238 -206 -258 -207 -4 0 -72 66 -150 147 -236 245 -557 531 -848 756
l-88 68 0 2680 c0 1473 3 2679 8 2679 4 0 57 -39 117 -86z m-10515 -1064 c455
-120 969 -319 1455 -565 l140 -71 60 -120 c93 -185 135 -286 204 -493 163
-489 223 -1103 171 -1741 -77 -937 -398 -1701 -874 -2082 -163 -131 -125 -139
-327 67 -258 263 -504 483 -785 701 l-124 96 0 2115 0 2114 23 -6 c12 -3 38
-10 57 -15z"/>
</g>
</svg>
